<svg width="1396" height="234" viewBox="0 0 1396 234" fill="none" xmlns="http://www.w3.org/2000/svg">
<path d="M2.16834 118.623C2.40927 127.537 2.89112 142.716 11.3236 155.485C22.4062 172.832 38.0664 176.686 56.8587 176.686C73.7236 176.686 83.8425 173.314 90.5885 169.218C112.513 155.726 117.572 134.524 117.572 107.781V0.809876H79.7468V107.54C79.7468 116.696 79.7468 127.537 78.3012 134.765C77.0966 139.343 73.7236 149.462 59.268 149.462C43.8487 149.462 39.2711 137.415 38.7892 118.623H2.16834ZM121.19 115.25C121.19 157.894 148.656 179.337 183.349 179.337C227.439 179.337 247.195 148.498 247.195 114.286C247.195 80.3157 228.161 50.4408 184.072 50.4408C136.127 50.4408 121.19 85.8571 121.19 115.25ZM157.811 115.491C157.811 104.408 158.052 74.2926 184.072 74.2926C207.683 74.2926 210.815 96.6988 210.815 112.841C210.815 145.125 200.214 154.521 184.554 154.521C166.966 154.521 157.811 142.716 157.811 115.491ZM255.706 175H291.604L291.363 100.554C291.363 81.5204 304.132 75.7381 314.251 75.7381C334.248 75.7381 334.248 95.2532 334.248 102.24V175H369.665V101.035C369.665 85.1343 366.051 74.0516 361.714 68.0285C355.932 60.5597 344.367 51.6454 326.298 51.6454C304.132 51.6454 295.218 64.1736 291.122 69.9559V1.0508H255.706V175ZM488.039 175C485.87 164.881 485.148 154.521 485.148 144.161L484.907 95.2532C484.907 89.7119 484.666 75.2563 476.474 65.3783C464.428 51.4045 443.226 49.718 433.107 49.718C421.543 49.718 407.328 51.6454 396.246 59.596C383.476 68.7513 382.754 81.7613 382.513 88.2663H417.447C417.447 85.3752 417.447 81.5204 420.097 77.4246C423.229 72.847 428.53 70.6787 433.589 70.6787C436.962 70.6787 446.358 71.8833 449.49 80.7976C450.936 85.1343 451.177 88.9891 451.177 96.9397C439.372 96.9397 417.929 96.9397 402.992 103.686C380.585 114.046 377.212 131.874 377.212 141.511C377.212 151.148 380.585 161.026 387.813 168.254C392.632 172.832 400.582 177.891 418.17 177.891C424.916 177.891 441.058 177.891 454.55 158.376C454.55 161.99 454.55 167.531 455.755 175H488.039ZM451.177 117.659C451.177 130.669 450.695 140.066 444.431 147.775C441.058 151.63 435.758 154.762 429.253 154.762C417.447 154.762 411.906 145.607 411.906 137.415C411.906 122.96 428.289 115.732 451.177 117.659ZM497.836 175H533.734V103.686C533.734 94.2895 535.902 88.2663 538.071 85.1343C541.925 79.352 548.912 75.7381 556.622 75.7381C565.777 75.7381 571.318 80.7976 573.969 86.098C575.896 89.9528 575.896 94.2895 575.896 99.349V175H612.276V109.227C612.276 86.5798 611.553 80.3157 608.903 72.847C605.771 64.4146 595.652 49.959 571.8 49.959C545.298 49.959 535.661 65.6192 532.288 71.1605L531.325 52.8501H497.113C497.836 61.2825 497.836 74.5335 497.836 75.0154V175ZM625.847 175H661.745V103.686C661.745 94.2895 663.913 88.2663 666.082 85.1343C669.937 79.352 676.923 75.7381 684.633 75.7381C693.788 75.7381 699.33 80.7976 701.98 86.098C703.907 89.9528 703.907 94.2895 703.907 99.349V175H740.287V109.227C740.287 86.5798 739.564 80.3157 736.914 72.847C733.782 64.4146 723.663 49.959 699.812 49.959C673.31 49.959 663.673 65.6192 660.3 71.1605L659.336 52.8501H625.124C625.847 61.2825 625.847 74.5335 625.847 75.0154V175ZM823.804 139.825C824.045 145.607 824.768 155.244 832.718 163.676C843.801 175.241 858.739 178.614 874.399 178.614C912.224 178.614 930.294 157.653 930.294 136.693C930.294 120.069 919.934 108.745 897.769 102.722L875.844 96.6988C865.244 93.8076 859.22 92.1212 859.22 83.9296C859.22 76.4609 866.448 71.8833 876.085 71.8833C881.627 71.8833 892.468 72.847 893.432 86.3389H925.957C924.993 62.0053 904.756 50.4408 879.699 50.4408C848.138 50.4408 826.454 64.8964 826.454 88.5073C826.454 113.323 847.415 119.346 857.293 122.237L879.458 128.26C893.432 132.115 896.323 136.452 896.323 141.993C896.323 149.221 890.3 156.449 877.531 156.449C862.593 156.449 857.775 147.534 857.293 139.825H823.804ZM932.462 53.3319V221.74H968.842V161.026C971.974 165.122 980.889 176.686 1002.81 176.686C1037.99 176.686 1055.82 146.089 1055.82 111.636C1055.82 74.5335 1036.78 50.9227 1005.22 50.9227C999.44 50.9227 979.202 51.1636 968.119 70.6787L967.156 53.3319H932.462ZM993.658 153.317C967.397 153.317 967.156 122.478 967.156 115.25C967.156 82.4841 983.539 73.8107 995.103 73.8107C1016.06 73.8107 1019.68 98.6262 1019.68 113.082C1019.68 137.174 1010.52 153.317 993.658 153.317ZM1166.96 175C1164.79 164.881 1164.07 154.521 1164.07 144.161L1163.83 95.2532C1163.83 89.7119 1163.59 75.2563 1155.4 65.3783C1143.35 51.4045 1122.15 49.718 1112.03 49.718C1100.47 49.718 1086.25 51.6454 1075.17 59.596C1062.4 68.7513 1061.68 81.7613 1061.44 88.2663H1096.37C1096.37 85.3752 1096.37 81.5204 1099.02 77.4246C1102.15 72.847 1107.45 70.6787 1112.51 70.6787C1115.89 70.6787 1125.28 71.8833 1128.41 80.7976C1129.86 85.1343 1130.1 88.9891 1130.1 96.9397C1118.3 96.9397 1096.85 96.9397 1081.92 103.686C1059.51 114.046 1056.14 131.874 1056.14 141.511C1056.14 151.148 1059.51 161.026 1066.74 168.254C1071.56 172.832 1079.51 177.891 1097.09 177.891C1103.84 177.891 1119.98 177.891 1133.47 158.376C1133.47 161.99 1133.47 167.531 1134.68 175H1166.96ZM1130.1 117.659C1130.1 130.669 1129.62 140.066 1123.36 147.775C1119.98 151.63 1114.68 154.762 1108.18 154.762C1096.37 154.762 1090.83 145.607 1090.83 137.415C1090.83 122.96 1107.21 115.732 1130.1 117.659ZM1275.54 96.4578C1275.3 63.4509 1248.56 50.9227 1225.91 50.9227C1209.77 50.9227 1169.05 58.6323 1169.05 114.046C1169.05 133.561 1173.87 149.703 1184.47 161.99C1195.55 174.518 1209.77 178.132 1225.91 178.132C1241.09 178.132 1251.93 174.277 1260.6 166.808C1274.58 155.003 1275.78 140.307 1276.26 130.91H1241.09C1239.64 152.594 1228.56 154.28 1224.7 154.28C1222.05 154.28 1218.44 153.798 1215.07 150.185C1206.88 141.27 1206.15 119.587 1206.15 112.841C1206.15 99.5899 1208.08 74.0516 1224.95 74.0516C1238.68 74.0516 1240.12 92.1212 1240.61 96.4578H1275.54ZM1387.81 123.201C1388.29 113.082 1388.78 95.2532 1380.58 78.6293C1369.5 55.9821 1348.78 49.2362 1331.44 49.2362C1318.18 49.2362 1306.62 53.091 1297.22 59.3551C1276.74 73.5698 1271.93 97.1806 1271.93 116.937C1271.93 136.452 1276.5 152.835 1287.59 164.399C1300.36 177.65 1320.11 179.578 1330.47 179.578C1348.3 179.578 1364.2 174.759 1373.12 165.363C1382.99 155.003 1384.2 144.643 1384.68 138.861H1352.15C1348.78 152.353 1339.87 155.726 1330.95 155.726C1306.14 155.726 1306.14 131.151 1306.14 123.201H1387.81ZM1307.34 100.795C1308.07 86.5798 1314.57 73.5698 1330.23 73.5698C1350.95 73.5698 1351.43 95.2532 1351.43 100.795H1307.34Z" fill="black"/>
<circle cx="785.118" cy="111.423" r="18.5742" fill="black"/>
</svg>
